# xmcd CD database file
#
# Track frame offsets:
#	150
#	17538
#	49728
#	67575
#	81193
#	100590
#	115558
#	140645
#	154038
#	167050
#	188173
#	207475
#	224603
#	245083
#	279608
#	295633
#
# Disc length: 4353 seconds
#
# Revision: 5
# Processed by: cddbd v1.5.2PL0 Copyright (c) Steve Scherf et al.
# Submitted via: CDex 1.84
#
DISCID=e010ff10
DTITLE=Bob Marley And The Wailers - Legend
DYEAR=1984
DGENRE=Reggae
TTITLE0=Is This Love (from Kaya)
TTITLE1=No Woman No Cry (from Live!)
TTITLE2=Could You Be Loved (from Uprising)
TTITLE3=Three Little Birds (from Exodus)
TTITLE4=Buffalo Soldier (from Confrontation)
TTITLE5=Get Up Stand Up (from Burnin)
TTITLE6=Stir It Up (from Catch A Fire)
TTITLE7=Easy Skanking (from Kaya)
TTITLE8=One Love - People Get Ready (from Exodus)
TTITLE9=I Shot The Sheriff (from Burnin)
TTITLE10=Waiting In Vain (from Exodus)
TTITLE11=Redemption Song (from Uprising)
TTITLE12=Satisfy My Soul (from Kaya)
TTITLE13=Exodus (from Exodus)
TTITLE14=Jamming (from Exodus)
TTITLE15=Punky Reggae Party (from Exodus)
EXTD=YEAR: 1984
EXTT0=
EXTT1=
EXTT2=
EXTT3=
EXTT4=
EXTT5=
EXTT6=
EXTT7=
EXTT8=
EXTT9=
EXTT10=
EXTT11=
EXTT12=
EXTT13=
EXTT14=
EXTT15=
PLAYORDER=
